<svg xmlns="http://www.w3.org/2000/svg" viewBox="0 0 100 100"><defs><linearGradient id="pool" x1="0%" x2="100%" y1="0%" y2="100%"><stop offset="0%" stop-color="#0ea5e9"/><stop offset="100%" stop-color="#2563eb"/></linearGradient></defs><rect width="100" height="100" fill="#0f172a" rx="20"/><path fill="#64748b" d="M30 35c0-10 10-10 10 0s-10 10-10 0m30 0c0-10 10-10 10 0s-10 10-10 0M45 25c0-10 10-10 10 0s-10 10-10 0"/><path fill="#94a3b8" d="M35 60c0-15 30-15 30 0S50 85 50 85 35 75 35 60"/><path fill="url(#pool)" d="M15 80c15-10 35 10 55 0 10-5 15 5 0 15-20 10-40-10-55 0-10 5-10-10 0-15"/></svg>